<svg width="900" height="600" xmlns="http://www.w3.org/2000/svg"><path d="M0 37h82v60h82V43h81v54h82V55h82v18h82v24h82V73h82V37h81v36h164V0H0Z" fill="#fa7268"/><path d="M0 193h82v18h82v18h81v-30h82v-30h82v66h82v12h82v-12h82v-78h81v54h82v102h82V53v18H736V35h-81v36h-82v24h-82V71h-82V53h-82v42h-82V41h-81v54H82V35H0Z" fill="#ea5e66"/><path d="M0 319h82v-36h82v24h81v-60h82v78h82v78h82v-30h82v-18h82v-66h81v24h82v66h82V167v144h-82V209h-82v-54h-81v78h-82v12h-82v-12h-82v-66h-82v30h-82v30h-81v-18H82v-18H0Z" fill="#d84a64"/><path d="M0 481h164v18h81v-12h82v36h82v30h82v-60h82v30h82v-30h81v6h82v-6h82v6-224 102h-82v-66h-82v-24h-81v66h-82v18h-82v30h-82v-78h-82v-78h-82v60h-81v-24H82v36H0Z" fill="#c53762"/><path d="M0 601h900V491h-82v6h-82v-6h-81v30h-82v-30h-82v60h-82v-30h-82v-36h-82v12h-81v-18H0Z" fill="#b0235f"/></svg>